# xmcd
#
# Track frame offsets:
# 150
# 16845
# 32120
# 51530
# 66632
# 81105
# 96707
# 112385
# 126980
# 139372
# 153700
# 167322
# 177547
# 186662
#
# Disc length: 2641 seconds
#
#
# Revision: 0
# Processed by: cddbd v1.5.1PL2 Copyright (c) Steve Scherf et al.
# Submitted via: FreeRIP 2.945 
#
DISCID=e00a4f0e
DTITLE=Tony Soares and Tabony - MEU VICIO
DYEAR=1998
DGENRE=Other
TTITLE0=Meu Universo
TTITLE1=Mil fantasias
TTITLE2=Simplesmente num sorriso
TTITLE3=Motivo pra viver
TTITLE4=Meu vicio
TTITLE5=Caminho dificil
TTITLE6=Outra chance
TTITLE7=Sem juiso
TTITLE8=Rei por 8 segundos
TTITLE9=Amor danado
TTITLE10=Real fantasia
TTITLE11=atrás do volante
TTITLE12=Coisas da roça
TTITLE13=Sempre que morreum menino
EXTD=
EXTT0=
EXTT1=
EXTT2=
EXTT3=
EXTT4=
EXTT5=
EXTT6=
EXTT7=
EXTT8=
EXTT9=
EXTT10=
EXTT11=
EXTT12=
EXTT13=
PLAYORDER=
